<?xml version="1.0" encoding="UTF-8" standalone="no"?>
<!-- Created with Inkscape (http://www.inkscape.org/) -->

<svg
   width="50"
   height="50"
   viewBox="0 0 13.229166 13.229166"
   version="1.1"
   id="svg15684"
   inkscape:version="1.1 (c68e22c387, 2021-05-23)"
   sodipodi:docname="chef-hat.svg"
   xmlns:inkscape="http://www.inkscape.org/namespaces/inkscape"
   xmlns:sodipodi="http://sodipodi.sourceforge.net/DTD/sodipodi-0.dtd"
   xmlns="http://www.w3.org/2000/svg"
   xmlns:svg="http://www.w3.org/2000/svg">
  <sodipodi:namedview
     id="namedview15686"
     pagecolor="#c8c8c8"
     bordercolor="#666666"
     borderopacity="1.0"
     inkscape:pageshadow="2"
     inkscape:pageopacity="0"
     inkscape:pagecheckerboard="true"
     inkscape:document-units="mm"
     showgrid="false"
     lock-margins="true"
     fit-margin-top="2.5"
     fit-margin-left="2.5"
     fit-margin-right="2.5"
     fit-margin-bottom="2.5"
     inkscape:zoom="17.081048"
     inkscape:cx="20.256368"
     inkscape:cy="24.032483"
     inkscape:window-width="1920"
     inkscape:window-height="1047"
     inkscape:window-x="-9"
     inkscape:window-y="-9"
     inkscape:window-maximized="1"
     inkscape:current-layer="g981"
     units="px" />
  <defs
     id="defs15681">
    <inkscape:path-effect
       effect="spiro"
       id="path-effect1242"
       is_visible="true"
       lpeversion="1" />
    <inkscape:path-effect
       effect="spiro"
       id="path-effect1022"
       is_visible="true"
       lpeversion="1" />
    <inkscape:path-effect
       effect="spiro"
       id="path-effect1014"
       is_visible="true"
       lpeversion="1" />
    <inkscape:path-effect
       effect="spiro"
       id="path-effect1010"
       is_visible="true"
       lpeversion="1" />
    <inkscape:path-effect
       effect="spiro"
       id="path-effect1006"
       is_visible="true"
       lpeversion="1" />
    <inkscape:path-effect
       effect="spiro"
       id="path-effect1002"
       is_visible="true"
       lpeversion="1" />
    <inkscape:path-effect
       effect="spiro"
       id="path-effect886"
       is_visible="true"
       lpeversion="0" />
    <inkscape:path-effect
       effect="skeletal"
       id="path-effect888"
       is_visible="true"
       pattern="M 0,5 C 0,2.24 2.24,0 5,0 7.76,0 10,2.24 10,5 10,7.76 7.76,10 5,10 2.24,10 0,7.76 0,5 Z"
       copytype="single_stretched"
       prop_scale="0.53274"
       scale_y_rel="false"
       spacing="0"
       normal_offset="0"
       tang_offset="0"
       prop_units="false"
       vertical_pattern="false"
       fuse_tolerance="0"
       lpeversion="0"
       hide_knot="false" />
    <inkscape:path-effect
       effect="spiro"
       id="path-effect892"
       is_visible="true"
       lpeversion="0" />
    <inkscape:path-effect
       effect="skeletal"
       id="path-effect894"
       is_visible="true"
       pattern="M 0,5 C 0,2.24 2.24,0 5,0 7.76,0 10,2.24 10,5 10,7.76 7.76,10 5,10 2.24,10 0,7.76 0,5 Z"
       copytype="single_stretched"
       prop_scale="0.53274"
       scale_y_rel="false"
       spacing="0"
       normal_offset="0"
       tang_offset="0"
       prop_units="false"
       vertical_pattern="false"
       fuse_tolerance="0"
       lpeversion="0"
       hide_knot="false" />
    <inkscape:path-effect
       effect="spiro"
       id="path-effect898"
       is_visible="true"
       lpeversion="0" />
    <inkscape:path-effect
       effect="skeletal"
       id="path-effect900"
       is_visible="true"
       pattern="M 0,5 C 0,2.24 2.24,0 5,0 7.76,0 10,2.24 10,5 10,7.76 7.76,10 5,10 2.24,10 0,7.76 0,5 Z"
       copytype="single_stretched"
       prop_scale="0.53274"
       scale_y_rel="false"
       spacing="0"
       normal_offset="0"
       tang_offset="0"
       prop_units="false"
       vertical_pattern="false"
       fuse_tolerance="0"
       lpeversion="0"
       hide_knot="false" />
    <inkscape:path-effect
       effect="spiro"
       id="path-effect904"
       is_visible="true"
       lpeversion="0" />
    <inkscape:path-effect
       effect="skeletal"
       id="path-effect906"
       is_visible="true"
       pattern="M 0,5 C 0,2.24 2.24,0 5,0 7.76,0 10,2.24 10,5 10,7.76 7.76,10 5,10 2.24,10 0,7.76 0,5 Z"
       copytype="single_stretched"
       prop_scale="0.532211"
       scale_y_rel="false"
       spacing="0"
       normal_offset="0"
       tang_offset="0"
       prop_units="false"
       vertical_pattern="false"
       fuse_tolerance="0"
       lpeversion="0"
       hide_knot="false" />
  </defs>
  <g
     inkscape:label="Layer 1"
     inkscape:groupmode="layer"
     id="layer1"
     transform="translate(-106.76099,-158.16312)">
    <g
       id="g981"
       transform="matrix(0.08615721,0,0,0.08615721,98.595545,144.19763)">
      <path
         style="fill:none;stroke:#dcdcdc;stroke-width:5.80334484;stroke-linecap:round;stroke-linejoin:miter;stroke-miterlimit:4;stroke-dasharray:none;stroke-opacity:1"
         d="m 190.69971,191.69476 c -1.49465,3.60671 -3.33652,7.06943 -5.49186,10.32471 -2.13169,3.21956 -4.57525,6.24713 -6.37057,9.66568 -1.85526,3.53269 -2.98381,7.44501 -3.29511,11.42307"
         id="path1004"
         inkscape:path-effect="#path-effect1006"
         inkscape:original-d="m 190.69971,191.69476 c -4.73753,7.10631 2.48028,-3.97826 -5.49186,10.32471 -0.75238,1.34985 -5.65331,7.5139 -6.37057,9.66568 -1.22243,3.6673 -2.35995,7.6824 -3.29511,11.42307" />
      <path
         style="fill:none;stroke:#dcdcdc;stroke-width:5.80334484;stroke-linecap:round;stroke-linejoin:miter;stroke-miterlimit:4;stroke-dasharray:none;stroke-opacity:1"
         d="m 233.53625,237.16739 c -13.04596,-1.80314 -26.78116,2.1212 -36.90532,10.54438 -1.63364,1.35917 -3.17597,2.82806 -4.61317,4.39349"
         id="path1008"
         inkscape:path-effect="#path-effect1010"
         inkscape:original-d="m 233.53625,237.16739 c -21.63371,-4.82738 -16.15347,-3.52872 -36.90532,10.54438 -1.72423,1.1693 -4.61317,1.97681 -4.61317,4.39349" />
      <path
         style="fill:none;stroke:#dcdcdc;stroke-width:5.80334484;stroke-linecap:round;stroke-linejoin:miter;stroke-miterlimit:4;stroke-dasharray:none;stroke-opacity:1"
         d="m 132.48596,282.20067 c 0.35391,-1.96454 1.35067,-3.80789 2.80082,-5.17965 1.45015,-1.37176 3.34598,-2.26466 5.32714,-2.50896 2.29225,-0.28266 4.5913,0.28045 6.87832,0.60267 1.14352,0.16112 2.30224,0.26239 3.4531,0.16703 1.15087,-0.0954 2.29869,-0.39435 3.2884,-0.98937 0.87552,-0.52636 1.60904,-1.27487 2.16458,-2.13217 0.55554,-0.8573 0.93623,-1.82167 1.1707,-2.81596 0.46894,-1.98858 0.35658,-4.06774 0.10836,-6.09572 -0.24823,-2.02799 -0.62984,-4.04499 -0.69243,-6.08715 -0.0626,-2.04216 0.21437,-4.14679 1.20294,-5.93483 0.69117,-1.25014 1.72023,-2.31134 2.94851,-3.04064 1.22829,-0.7293 2.65261,-1.12479 4.08107,-1.13318"
         id="path1012"
         inkscape:path-effect="#path-effect1014"
         inkscape:original-d="m 132.48596,282.20067 c 2.70932,-2.56287 4.62306,-6.4141 8.12796,-7.68861 4.26716,-1.55169 9.29531,1.16417 13.61982,-0.21967 5.53161,-1.77012 2.3313,-17.65635 3.95415,-23.06583 0.66608,-2.22028 5.25203,-2.98878 7.02958,-4.17382" />
      <path
         style="fill:none;stroke:#dcdcdc;stroke-width:5.80334484;stroke-linecap:round;stroke-linejoin:miter;stroke-miterlimit:4;stroke-dasharray:none;stroke-opacity:1"
         d="m 133.14498,199.38337 c -0.70372,2.87252 -0.51353,5.95741 0.53769,8.72174 1.05122,2.76433 2.95892,5.19607 5.39352,6.87515 2.67332,1.84371 5.89768,2.76412 8.56731,4.61317 2.97288,2.05909 5.13334,5.25977 5.93122,8.78698"
         id="path1020"
         inkscape:path-effect="#path-effect1022"
         inkscape:original-d="m 133.14498,199.38337 c -0.30188,4.11175 0.6912,13.94215 5.93121,15.59689 3.77145,1.19099 5.70212,-0.40092 8.56731,4.61317 1.44458,2.52801 2.2301,8.78698 5.93122,8.78698" />
      <path
         style="fill:none;stroke:#f0f0f0;stroke-width:8;stroke-linecap:round;stroke-linejoin:round;stroke-miterlimit:4;stroke-dasharray:none;stroke-opacity:1"
         d="m 116.88906,241.12153 c -4.06525,-4.12525 -6.72006,-9.61592 -7.42874,-15.36412 -0.70868,-5.74819 0.53303,-11.71926 3.4746,-16.70836 4.04646,-6.86309 11.40297,-11.73624 19.33136,-12.52145 1.25647,-0.12444 2.52779,-0.15236 3.76147,-0.42117 1.23367,-0.26881 2.45561,-0.80913 3.26812,-1.77558 0.34013,-0.40457 0.5979,-0.87025 0.8787,-1.31804 1.41463,-2.25586 3.43838,-4.08248 5.65977,-5.55064 2.22139,-1.46817 4.64661,-2.59768 7.08135,-3.6757 4.43109,-1.96195 9.04896,-3.79958 13.89247,-3.95528 2.42176,-0.0779 4.87572,0.27859 7.10971,1.21681 2.23399,0.93823 4.24011,2.47601 5.57844,4.49587 0.67671,1.02132 1.17753,2.15099 1.85649,3.17082 0.33948,0.50991 0.72475,0.99299 1.18219,1.40044 0.45743,0.40744 0.98966,0.73832 1.57449,0.9206 1.01098,0.3151 2.11093,0.16984 3.12958,-0.11949 1.01866,-0.28933 1.99495,-0.71818 3.0213,-0.97888 2.00233,-0.50861 4.11611,-0.35738 6.15089,0 5.02601,0.88274 9.75662,2.981 14.7182,4.17382 1.50526,0.36188 3.03857,0.64246 4.48081,1.20523 1.44223,0.56277 2.81419,1.44394 3.64715,2.74891 0.90286,1.41448 1.08321,3.18309 0.92881,4.85404 -0.1544,1.67095 -0.61486,3.29696 -0.89818,4.95094 -0.28332,1.65397 -0.38237,3.39228 0.17024,4.97674 0.2763,0.79224 0.7167,1.5338 1.3225,2.1143 0.6058,0.58051 1.38114,0.99418 2.21109,1.11729 0.65293,0.0968 1.31718,0.0153 1.97708,0 2.12916,-0.0493 4.2777,0.62325 5.96411,1.92393 1.68641,1.30068 2.89004,3.22837 3.26222,5.32533 0.43601,2.45655 -0.24454,4.98601 0,7.46894 0.1813,1.84084 0.86316,3.58856 1.45882,5.33977 0.59566,1.75122 1.11638,3.58136 0.9576,5.42428 -0.11267,1.30773 -0.56346,2.5612 -1.05833,3.77691 -0.49487,1.21572 -1.04024,2.41852 -1.35809,3.69203 -0.54409,2.17997 -0.41376,4.5334 -1.31805,6.59023 -0.72138,1.6408 -2.03379,2.93488 -3.07545,4.3935 -1.64403,2.30211 -2.62711,5.03963 -4.39349,7.24926 -2.5488,3.18838 -6.68612,5.01365 -10.76405,4.83284 -0.3722,-0.0165 -0.74456,-0.0486 -1.11678,-0.0325 -0.37222,0.0161 -0.74829,0.0825 -1.07997,0.25219 -0.28554,0.14608 -0.53024,0.36523 -0.72716,0.6184 -0.19692,0.25317 -0.34746,0.54001 -0.46793,0.83726 -0.24094,0.59451 -0.36324,1.22965 -0.5623,1.83946 -0.71377,2.18664 -2.38674,3.94782 -4.2739,5.26292 -1.88715,1.31511 -4.0073,2.24849 -6.05081,3.3044 -3.07846,1.59068 -6.10933,3.50882 -9.54377,3.96901 -1.71723,0.2301 -3.51486,0.0693 -5.08346,-0.66639 -1.56859,-0.73574 -2.88428,-2.08367 -3.38608,-3.74198 -0.1525,-0.50397 -0.22969,-1.02713 -0.34446,-1.54101 -0.11477,-0.51388 -0.27133,-1.02785 -0.5634,-1.46596 -0.14604,-0.21905 -0.32549,-0.41722 -0.53779,-0.57291 -0.2123,-0.15569 -0.45805,-0.26817 -0.71743,-0.31326 -0.25938,-0.0451 -0.5323,-0.0213 -0.77488,0.0811 -0.24258,0.1023 -0.45296,0.28466 -0.57683,0.51697 -0.0884,0.1658 -0.13172,0.35203 -0.15779,0.53812 -0.0261,0.18608 -0.0358,0.37417 -0.0619,0.56025 -0.0904,0.64434 -0.37556,1.24873 -0.73845,1.78878 -0.36289,0.54005 -0.80336,1.02272 -1.23862,1.50634 -1.76824,1.9647 -3.48688,3.98911 -5.49186,5.71154 -3.59927,3.09204 -8.03891,5.11977 -12.65395,6.22287 -4.61505,1.10309 -9.40972,1.30886 -14.14635,1.02639 -2.64451,-0.1577 -5.32709,-0.47821 -7.75275,-1.54333 -1.21283,-0.53256 -2.35111,-1.25096 -3.30095,-2.1742 -0.94985,-0.92324 -1.70767,-2.05551 -2.12677,-3.31206 -0.39958,-1.19802 -0.48549,-2.47475 -0.73852,-3.71204 -0.12652,-0.61864 -0.29637,-1.23177 -0.56305,-1.80414 -0.26669,-0.57237 -0.63361,-1.10458 -1.11485,-1.5134 -0.53193,-0.45188 -1.1892,-0.74057 -1.86839,-0.90134 -0.67919,-0.16078 -1.3821,-0.19834 -2.07999,-0.18849 -1.39578,0.0197 -2.80342,0.22548 -4.17958,-0.009 -1.37956,-0.23461 -2.66316,-0.90885 -3.73074,-1.81356 -1.06759,-0.90471 -1.92844,-2.03389 -2.63982,-3.23895 -1.91268,-3.24001 -2.75221,-6.97908 -3.95414,-10.54438 -0.91756,-2.72175 -2.05773,-5.3688 -2.85577,-8.12796 -0.73358,-2.5363 -1.17483,-5.19177 -0.91602,-7.81932 0.25881,-2.62754 1.26271,-5.23487 3.11276,-7.11855 1.87425,-1.90832 4.57704,-2.97306 7.24926,-2.85577"
         id="path1240"
         inkscape:path-effect="#path-effect1242"
         inkscape:original-d="m 116.88906,241.12153 c -2.4328,-9.99815 -9.95105,-22.15451 -3.95414,-32.07248 4.04475,-6.68939 12.03567,-10.61823 19.33136,-12.52145 2.32806,-0.60732 5.13686,-0.93493 7.02959,-2.19675 0.43935,-0.2929 0.50532,-0.94467 0.8787,-1.31804 1.52547,-1.52547 10.9818,-8.46141 12.74112,-9.22634 8.40391,-3.65387 19.06626,-4.02288 26.58062,1.7574 1.39645,1.07419 3.32428,5.06223 4.61317,5.49186 1.97585,0.65862 4.07772,-0.89903 6.15088,-1.09837 2.04089,-0.19624 4.1006,0 6.15089,0 7.68763,0 8.43163,0.88086 14.7182,4.17382 4.47796,2.3456 4.95758,1.7745 8.12796,3.95414 6.07686,4.17784 3.47751,17.75636 3.73446,18.01331 0.466,0.466 1.39682,-0.31244 1.97708,0 1.50703,0.81148 8.70581,5.16718 9.22633,7.24926 0.47625,1.905 -0.12132,6.16471 0,7.46894 0.32131,3.45415 2.70489,7.30239 2.41642,10.76405 -0.21731,2.60766 -1.78178,4.93036 -2.41642,7.46894 -0.54335,2.17336 -0.48604,4.51022 -1.31805,6.59023 -0.66392,1.65979 -2.08384,2.90608 -3.07545,4.3935 -0.87601,1.31402 -2.92468,6.16362 -4.39349,7.24926 -1.76823,1.30695 -8.186,3.64296 -10.76405,4.83284 -0.5523,0.2549 -1.7564,-0.22067 -2.19675,0.21967 -0.84705,0.84705 -1.19525,2.28327 -1.75739,3.29512 -1.74829,3.14691 -7.44766,7.07551 -10.32471,8.56732 -3.4558,1.79189 -14.52683,1.30388 -18.01331,-0.43936 -1.38716,-0.69359 -2.12551,-2.60048 -3.51479,-3.29512 -0.33396,-0.16698 -0.0458,0.76796 -0.21968,1.09837 -0.59658,1.1335 -1.22862,2.25563 -1.97707,3.29512 -1.42397,1.97775 -3.72146,4.03431 -5.49186,5.71154 -6.76369,6.40771 -17.88294,8.60625 -26.8003,7.24926 -4.45418,-0.67781 -10.72581,-3.04076 -13.18047,-7.02959 -1.22142,-1.98481 -1.08021,-5.15889 -2.41642,-7.02958 -0.29392,-0.41149 -6.40685,-0.0657 -8.12796,-1.09838 -1.25756,-0.75453 -4.8755,-3.55745 -6.37056,-5.05251 -2.74445,-2.74445 -3.10233,-7.05971 -3.95414,-10.54438 -0.68189,-2.78955 -2.23282,-5.32466 -2.85577,-8.12796 -0.85252,-3.83633 -0.5194,-11.76903 2.19674,-14.93787 3.99387,-4.65951 3.68283,2.74864 7.24926,-2.85577"
         sodipodi:nodetypes="csssccssssssssssssssssssssscssssssssssc" />
      <path
         style="fill:#f9f9f9;stroke:#f9f9f9;stroke-width:1.88976;stroke-linecap:round;stroke-linejoin:round;stroke-miterlimit:4;stroke-dasharray:none;stroke-opacity:1"
         d="m 179.08246,478.63558 c -10.44158,-1.45006 -17.14459,-3.99574 -22.19339,-8.42864 -4.01605,-3.52615 -5.25344,-6.21466 -6.71551,-14.59104 -0.68535,-3.92642 -1.71973,-8.51374 -2.29865,-10.19406 -0.91396,-2.65278 -0.86736,-3.28384 0.35387,-4.792 0.77355,-0.95528 1.63427,-3.15986 1.91271,-4.89906 0.75298,-4.70311 5.41218,-11.83297 9.98819,-15.28466 7.57637,-5.71488 15.77517,-6.92187 30.83151,-4.53889 12.61896,1.99721 18.02987,2.29371 24.05391,1.31804 14.99471,-2.42854 25.09291,-11.9684 29.25313,-27.63568 1.7673,-6.65557 1.74193,-20.34283 -0.0608,-32.8113 -1.95377,-13.51307 -1.80329,-24.63648 0.41477,-30.66016 3.26934,-8.87876 12.10452,-15.1835 21.27747,-15.1835 2.00884,0 3.51666,-0.69755 5.24604,-2.42693 5.24027,-5.24027 1.56385,-13.34812 -6.05256,-13.34812 -9.07099,0 -19.40531,4.5044 -26.41335,11.51275 -10.93325,10.93372 -13.90871,25.67996 -10.32545,51.17233 1.92439,13.69063 1.93482,23.70194 0.0309,29.65567 -1.88465,5.89345 -5.97862,10.79077 -10.62904,12.71474 -4.47603,1.85181 -13.89408,1.87379 -24.71938,0.0577 -19.35283,-3.24672 -32.00093,-0.77646 -43.8072,8.55586 -4.42447,3.49734 -9.87874,10.7545 -12.12718,16.13579 l -1.2937,3.09625 -3.9739,-2.00166 c -5.82249,-2.9328 -11.48379,-3.86873 -23.40144,-3.86873 -10.445658,0 -10.685896,-0.0419 -14.001278,-2.44358 -6.524016,-4.72597 -10.800492,-12.67143 -16.820498,-31.25155 -2.354913,-7.26819 -6.298334,-18.8192 -8.763159,-25.66889 -7.401292,-20.56803 -8.739498,-25.68085 -9.24459,-35.32037 -0.51007,-9.73452 0.719198,-15.83837 4.347117,-21.58537 3.847983,-6.0956 11.107454,-9.93068 18.797922,-9.93068 8.92659,0 15.637592,-6.59184 15.637592,-15.35992 0,-4.61693 -1.583785,-7.91881 -6.172839,-12.86912 -12.068045,-13.01807 -20.443825,-32.02778 -21.927064,-49.76577 -2.862544,-34.23303 13.811165,-65.2531 43.874957,-81.62578 5.27457,-2.87252 16.95262,-7.26288 19.31876,-7.26288 0.92713,0 1.29967,1.9665 1.69086,8.92536 0.91787,16.32803 6.31736,29.51395 16.61072,40.56452 7.77937,8.35164 11.59619,10.95245 28.14571,19.17871 13.17687,6.54982 14.8733,7.65294 20.67624,13.44499 6.67324,6.66073 10.31773,12.68067 12.75726,21.07234 2.34865,8.07907 8.73085,10.69244 13.7805,5.64279 2.93946,-2.93945 3.06764,-5.31032 0.68024,-12.58268 -3.46201,-10.5458 -8.6601,-18.60649 -17.18441,-26.6479 -6.46325,-6.0971 -12.73315,-10.01469 -26.02818,-16.26306 -10.11045,-4.75168 -14.5515,-7.63164 -19.687,-12.76677 -10.18292,-10.18217 -15.53034,-25.04189 -13.85035,-38.48808 0.42697,-3.41741 0.90933,-4.57102 1.91129,-4.57102 2.56713,0 12.26275,-2.71538 15.56079,-4.358 5.57581,-2.77709 10.2305,-7.12166 14.65521,-13.6788 9.42333,-13.964761 22.00643,-22.283 52.4407,-34.666693 20.41932,-8.308609 36.20572,-11.077021 48.36411,-8.481464 12.35469,2.637462 19.20523,7.818989 26.2031,19.819209 8.57438,14.703674 17.38768,21.201788 29.92076,22.060828 3.5795,0.24534 6.50818,0.61654 6.50818,0.82487 0,1.25658 -10.90499,18.64501 -19.92069,31.76431 -16.30223,23.72239 -20.81581,32.23513 -25.29949,47.71554 -2.27255,7.84623 -4.58681,20.54733 -4.59244,25.20417 -0.005,3.93591 3.80498,7.61609 7.88419,7.61609 3.93836,0 7.88752,-3.68823 7.88752,-7.36637 0,-4.3108 3.30879,-19.89827 5.54541,-26.12405 3.33078,-9.27143 7.98449,-17.93955 15.79548,-29.421 17.28033,-25.40055 21.13019,-31.54277 27.15725,-43.32768 l 6.3871,-12.48894 h 4.59977 c 7.06896,0 18.88147,2.73251 38.90152,8.99884 10.04622,3.1445 22.56248,6.75731 27.81391,8.02847 10.38353,2.51344 16.88685,5.30397 18.23604,7.82497 1.33547,2.49533 0.99775,9.67285 -0.86206,18.32155 -4.69574,21.83665 -2.02736,37.01262 8.32885,47.36882 6.47636,6.47636 11.61249,8.44067 23.77703,9.09352 8.75812,0.47003 10.56018,0.82112 13.72046,2.67317 8.24766,4.83345 9.15719,7.50359 9.09304,26.69503 -0.0351,10.50783 0.31498,16.54952 1.16058,20.02838 0.66597,2.73988 1.22318,5.16841 1.23825,5.39673 0.015,0.22833 -6.79018,0.43163 -15.12278,0.45178 -15.36003,0.0371 -24.07269,0.91401 -37.56736,3.78087 -35.87263,7.62092 -69.49033,25.79143 -94.04815,50.83345 -6.88043,7.01608 -7.65944,8.12387 -7.65944,10.89208 0,4.27972 3.64411,7.9355 7.91015,7.9355 2.74078,0 3.9259,-0.84017 11.48003,-8.13862 14.50449,-14.01355 26.74461,-22.86536 42.46466,-30.70959 18.34358,-9.15335 34.00795,-14.18207 54.04424,-17.34972 8.95348,-1.41552 42.69841,-2.18098 43.88379,-0.99545 0.28053,0.28055 0.72735,2.34494 0.99295,4.58753 0.37918,3.20148 -2.3e-4,5.4106 -1.76611,10.28335 -1.23698,3.41326 -3.33735,9.24499 -4.66751,12.9594 -1.33015,3.71441 -2.98215,10.62637 -3.6711,15.35992 -0.68895,4.73355 -1.46005,9.62272 -1.71357,10.86483 -0.25351,1.24211 -3.33971,6.1063 -6.85821,10.80931 -3.5185,4.70301 -9.15157,13.48144 -12.51793,19.50761 -6.70691,12.00618 -11.37916,17.42272 -17.91061,20.76378 -6.23634,3.19011 -11.61083,4.34278 -20.34151,4.36267 -6.51861,0.0149 -8.6168,0.35755 -12.08952,1.97462 -7.32102,3.40905 -12.55556,10.46982 -15.28458,20.61712 -1.20081,4.46497 -5.23797,9.57144 -10.26978,12.98991 -7.22406,4.90782 -38.41221,20.82794 -45.74539,23.35093 -8.1435,2.80177 -17.04177,1.98155 -20.23424,-1.86513 -0.53059,-0.63933 -1.84462,-4.20034 -2.92007,-7.91334 -1.07544,-3.71302 -3.02257,-8.29095 -4.32696,-10.17319 -6.48944,-9.36426 -18.96754,-12.46785 -28.25186,-7.02686 -4.99465,2.92706 -7.57068,6.36883 -9.52768,12.72973 -1.52103,4.94383 -2.63369,6.56028 -10.2016,14.82074 -16.66784,18.19312 -27.30648,25.32554 -47.35391,31.74731 -13.11746,4.20189 -20.73238,5.22002 -41.21369,5.51038 -10.27455,0.14565 -21.03746,-0.0624 -23.91759,-0.46241 z"
         id="path2032"
         transform="matrix(0.26458333,0,0,0.26458333,94.921609,166.87153)" />
    </g>
  </g>
</svg>
