<?xml version="1.0" encoding="UTF-8" standalone="no"?>
<!-- Created with Inkscape (http://www.inkscape.org/) -->

<svg
   width="32"
   height="32"
   viewBox="0 0 8.4666666 8.4666666"
   version="1.1"
   id="svg15684"
   inkscape:version="1.1 (c68e22c387, 2021-05-23)"
   sodipodi:docname="cutting-board.svg"
   xmlns:inkscape="http://www.inkscape.org/namespaces/inkscape"
   xmlns:sodipodi="http://sodipodi.sourceforge.net/DTD/sodipodi-0.dtd"
   xmlns:xlink="http://www.w3.org/1999/xlink"
   xmlns="http://www.w3.org/2000/svg"
   xmlns:svg="http://www.w3.org/2000/svg">
  <sodipodi:namedview
     id="namedview15686"
     pagecolor="#c8c8c8"
     bordercolor="#666666"
     borderopacity="1.0"
     inkscape:pageshadow="2"
     inkscape:pageopacity="0"
     inkscape:pagecheckerboard="true"
     inkscape:document-units="mm"
     showgrid="false"
     lock-margins="true"
     fit-margin-top="5"
     fit-margin-left="5"
     fit-margin-right="5"
     fit-margin-bottom="5"
     inkscape:zoom="9.6354662"
     inkscape:cx="11.104808"
     inkscape:cy="19.666926"
     inkscape:window-width="1920"
     inkscape:window-height="1047"
     inkscape:window-x="-9"
     inkscape:window-y="-9"
     inkscape:window-maximized="1"
     inkscape:current-layer="g1329"
     units="px" />
  <defs
     id="defs15681">
    <linearGradient
       inkscape:collect="always"
       id="linearGradient1251">
      <stop
         style="stop-color:#784421;stop-opacity:1"
         offset="0"
         id="stop1243" />
      <stop
         style="stop-color:#784403;stop-opacity:1"
         offset="0.30108351"
         id="stop1245" />
      <stop
         style="stop-color:#6c3600;stop-opacity:1"
         offset="0.71647137"
         id="stop1247" />
      <stop
         style="stop-color:#784421;stop-opacity:1"
         offset="1"
         id="stop1249" />
    </linearGradient>
    <inkscape:path-effect
       effect="spiro"
       id="path-effect8679"
       is_visible="true"
       lpeversion="1" />
    <inkscape:path-effect
       effect="spiro"
       id="path-effect8675"
       is_visible="true"
       lpeversion="1" />
    <inkscape:path-effect
       effect="spiro"
       id="path-effect8671"
       is_visible="true"
       lpeversion="1" />
    <inkscape:path-effect
       effect="spiro"
       id="path-effect8667"
       is_visible="true"
       lpeversion="1" />
    <inkscape:path-effect
       effect="spiro"
       id="path-effect8663"
       is_visible="true"
       lpeversion="1" />
    <inkscape:path-effect
       effect="spiro"
       id="path-effect8659"
       is_visible="true"
       lpeversion="1" />
    <inkscape:path-effect
       effect="spiro"
       id="path-effect8655"
       is_visible="true"
       lpeversion="1" />
    <inkscape:path-effect
       effect="spiro"
       id="path-effect8651"
       is_visible="true"
       lpeversion="1" />
    <inkscape:path-effect
       effect="spiro"
       id="path-effect8647"
       is_visible="true"
       lpeversion="1" />
    <inkscape:path-effect
       effect="spiro"
       id="path-effect8643"
       is_visible="true"
       lpeversion="1" />
    <inkscape:path-effect
       effect="spiro"
       id="path-effect1151"
       is_visible="true"
       lpeversion="1" />
    <inkscape:path-effect
       effect="spiro"
       id="path-effect1021"
       is_visible="true"
       lpeversion="1" />
    <inkscape:path-effect
       effect="spiro"
       id="path-effect1017"
       is_visible="true"
       lpeversion="1" />
    <inkscape:path-effect
       effect="spiro"
       id="path-effect1013"
       is_visible="true"
       lpeversion="1" />
    <inkscape:path-effect
       effect="spiro"
       id="path-effect1009"
       is_visible="true"
       lpeversion="1" />
    <inkscape:path-effect
       effect="spiro"
       id="path-effect1005"
       is_visible="true"
       lpeversion="1" />
    <inkscape:path-effect
       effect="spiro"
       id="path-effect1000"
       is_visible="true"
       lpeversion="1" />
    <inkscape:path-effect
       effect="spiro"
       id="path-effect996"
       is_visible="true"
       lpeversion="1" />
    <inkscape:path-effect
       effect="spiro"
       id="path-effect992"
       is_visible="true"
       lpeversion="1" />
    <inkscape:path-effect
       effect="spiro"
       id="path-effect988"
       is_visible="true"
       lpeversion="1" />
    <inkscape:path-effect
       effect="spiro"
       id="path-effect984"
       is_visible="true"
       lpeversion="1" />
    <inkscape:path-effect
       effect="spiro"
       id="path-effect1557"
       is_visible="true"
       lpeversion="1" />
    <inkscape:path-effect
       effect="spiro"
       id="path-effect1553"
       is_visible="true"
       lpeversion="1" />
    <inkscape:path-effect
       effect="spiro"
       id="path-effect1545"
       is_visible="true"
       lpeversion="1" />
    <inkscape:path-effect
       effect="spiro"
       id="path-effect1541"
       is_visible="true"
       lpeversion="1" />
    <inkscape:path-effect
       effect="spiro"
       id="path-effect1537"
       is_visible="true"
       lpeversion="1" />
    <inkscape:path-effect
       effect="spiro"
       id="path-effect1529"
       is_visible="true"
       lpeversion="1" />
    <inkscape:path-effect
       effect="spiro"
       id="path-effect1525"
       is_visible="true"
       lpeversion="1" />
    <inkscape:path-effect
       effect="spiro"
       id="path-effect1521"
       is_visible="true"
       lpeversion="1" />
    <inkscape:path-effect
       effect="spiro"
       id="path-effect1517"
       is_visible="true"
       lpeversion="1" />
    <inkscape:path-effect
       effect="spiro"
       id="path-effect1509"
       is_visible="true"
       lpeversion="1" />
    <linearGradient
       inkscape:collect="always"
       id="linearGradient963">
      <stop
         style="stop-color:#784421;stop-opacity:1"
         offset="0"
         id="stop959" />
      <stop
         style="stop-color:#784403;stop-opacity:1"
         offset="0.26593921"
         id="stop1131" />
      <stop
         style="stop-color:#622c29;stop-opacity:1"
         offset="0.80317372"
         id="stop1263" />
      <stop
         style="stop-color:#784421;stop-opacity:1"
         offset="1"
         id="stop961" />
    </linearGradient>
    <inkscape:path-effect
       effect="spiro"
       id="path-effect1825"
       is_visible="true"
       lpeversion="1" />
    <inkscape:path-effect
       effect="spiro"
       id="path-effect1813"
       is_visible="true"
       lpeversion="1" />
    <inkscape:path-effect
       effect="spiro"
       id="path-effect1809"
       is_visible="true"
       lpeversion="1" />
    <inkscape:path-effect
       effect="spiro"
       id="path-effect1805"
       is_visible="true"
       lpeversion="1" />
    <inkscape:path-effect
       effect="spiro"
       id="path-effect1801"
       is_visible="true"
       lpeversion="1" />
    <inkscape:path-effect
       effect="spiro"
       id="path-effect1797"
       is_visible="true"
       lpeversion="1" />
    <inkscape:path-effect
       effect="spiro"
       id="path-effect1793"
       is_visible="true"
       lpeversion="1" />
    <inkscape:path-effect
       effect="spiro"
       id="path-effect1789"
       is_visible="true"
       lpeversion="1" />
    <inkscape:path-effect
       effect="spiro"
       id="path-effect1785"
       is_visible="true"
       lpeversion="1" />
    <inkscape:path-effect
       effect="spiro"
       id="path-effect1781"
       is_visible="true"
       lpeversion="1" />
    <inkscape:path-effect
       effect="spiro"
       id="path-effect1242"
       is_visible="true"
       lpeversion="1" />
    <inkscape:path-effect
       effect="spiro"
       id="path-effect1022"
       is_visible="true"
       lpeversion="1" />
    <inkscape:path-effect
       effect="spiro"
       id="path-effect1014"
       is_visible="true"
       lpeversion="1" />
    <inkscape:path-effect
       effect="spiro"
       id="path-effect1010"
       is_visible="true"
       lpeversion="1" />
    <inkscape:path-effect
       effect="spiro"
       id="path-effect1006"
       is_visible="true"
       lpeversion="1" />
    <inkscape:path-effect
       effect="spiro"
       id="path-effect1002"
       is_visible="true"
       lpeversion="1" />
    <inkscape:path-effect
       effect="spiro"
       id="path-effect886"
       is_visible="true"
       lpeversion="0" />
    <inkscape:path-effect
       effect="skeletal"
       id="path-effect888"
       is_visible="true"
       pattern="M 0,5 C 0,2.24 2.24,0 5,0 7.76,0 10,2.24 10,5 10,7.76 7.76,10 5,10 2.24,10 0,7.76 0,5 Z"
       copytype="single_stretched"
       prop_scale="0.53274"
       scale_y_rel="false"
       spacing="0"
       normal_offset="0"
       tang_offset="0"
       prop_units="false"
       vertical_pattern="false"
       fuse_tolerance="0"
       lpeversion="0"
       hide_knot="false" />
    <inkscape:path-effect
       effect="spiro"
       id="path-effect892"
       is_visible="true"
       lpeversion="0" />
    <inkscape:path-effect
       effect="skeletal"
       id="path-effect894"
       is_visible="true"
       pattern="M 0,5 C 0,2.24 2.24,0 5,0 7.76,0 10,2.24 10,5 10,7.76 7.76,10 5,10 2.24,10 0,7.76 0,5 Z"
       copytype="single_stretched"
       prop_scale="0.53274"
       scale_y_rel="false"
       spacing="0"
       normal_offset="0"
       tang_offset="0"
       prop_units="false"
       vertical_pattern="false"
       fuse_tolerance="0"
       lpeversion="0"
       hide_knot="false" />
    <inkscape:path-effect
       effect="spiro"
       id="path-effect898"
       is_visible="true"
       lpeversion="0" />
    <inkscape:path-effect
       effect="skeletal"
       id="path-effect900"
       is_visible="true"
       pattern="M 0,5 C 0,2.24 2.24,0 5,0 7.76,0 10,2.24 10,5 10,7.76 7.76,10 5,10 2.24,10 0,7.76 0,5 Z"
       copytype="single_stretched"
       prop_scale="0.53274"
       scale_y_rel="false"
       spacing="0"
       normal_offset="0"
       tang_offset="0"
       prop_units="false"
       vertical_pattern="false"
       fuse_tolerance="0"
       lpeversion="0"
       hide_knot="false" />
    <inkscape:path-effect
       effect="spiro"
       id="path-effect904"
       is_visible="true"
       lpeversion="0" />
    <inkscape:path-effect
       effect="skeletal"
       id="path-effect906"
       is_visible="true"
       pattern="M 0,5 C 0,2.24 2.24,0 5,0 7.76,0 10,2.24 10,5 10,7.76 7.76,10 5,10 2.24,10 0,7.76 0,5 Z"
       copytype="single_stretched"
       prop_scale="0.532211"
       scale_y_rel="false"
       spacing="0"
       normal_offset="0"
       tang_offset="0"
       prop_units="false"
       vertical_pattern="false"
       fuse_tolerance="0"
       lpeversion="0"
       hide_knot="false" />
    <linearGradient
       inkscape:collect="always"
       xlink:href="#linearGradient963"
       id="linearGradient965"
       x1="99.191536"
       y1="167.48936"
       x2="99.370018"
       y2="175.23289"
       gradientUnits="userSpaceOnUse" />
    <linearGradient
       inkscape:collect="always"
       xlink:href="#linearGradient1251"
       id="linearGradient8681"
       gradientUnits="userSpaceOnUse"
       gradientTransform="translate(-2e-6,2.012e-4)"
       x1="99.191536"
       y1="166.98453"
       x2="99.214684"
       y2="175.27173" />
    <clipPath
       clipPathUnits="userSpaceOnUse"
       id="clipPath8906">
      <rect
         style="fill:url(#linearGradient8910);fill-opacity:1;stroke:#dcdcdc;stroke-width:0;stroke-linecap:round;stroke-linejoin:miter;stroke-miterlimit:4;stroke-dasharray:none"
         id="rect8908"
         width="8.4666681"
         height="8.4666662"
         x="94.921608"
         y="166.87154"
         ry="0" />
    </clipPath>
    <linearGradient
       inkscape:collect="always"
       xlink:href="#linearGradient963"
       id="linearGradient8910"
       gradientUnits="userSpaceOnUse"
       gradientTransform="translate(-3.6958333e-6)"
       x1="99.191536"
       y1="167.48936"
       x2="99.370018"
       y2="175.23289" />
    <clipPath
       clipPathUnits="userSpaceOnUse"
       id="clipPath8939">
      <rect
         style="fill:url(#linearGradient8943);fill-opacity:1;stroke:#dcdcdc;stroke-width:0;stroke-linecap:round;stroke-linejoin:miter;stroke-miterlimit:4;stroke-dasharray:none"
         id="rect8941"
         width="8.4666681"
         height="8.4666662"
         x="94.921608"
         y="166.87154"
         ry="0" />
    </clipPath>
    <linearGradient
       inkscape:collect="always"
       xlink:href="#linearGradient963"
       id="linearGradient8943"
       gradientUnits="userSpaceOnUse"
       gradientTransform="translate(-1.05e-6)"
       x1="99.191536"
       y1="167.48936"
       x2="99.370018"
       y2="175.23289" />
  </defs>
  <g
     inkscape:label="Layer 1"
     inkscape:groupmode="layer"
     id="layer1"
     transform="translate(-101.73152,-151.71399)">
    <g
       id="g1329"
       transform="translate(6.8099113,-15.157544)">
      <rect
         style="fill:url(#linearGradient965);fill-opacity:1;stroke:#dcdcdc;stroke-width:0;stroke-linecap:round;stroke-linejoin:miter;stroke-miterlimit:4;stroke-dasharray:none"
         id="rect1023-3"
         width="8.4666672"
         height="8.4666662"
         x="94.921608"
         y="166.87154"
         ry="0" />
      <path
         style="fill:none;stroke:#894e00;stroke-width:0.15;stroke-linecap:round;stroke-linejoin:miter;stroke-miterlimit:4;stroke-dasharray:none;stroke-opacity:1"
         d="m 95.539444,167.92871 c 0.782071,-0.2267 1.620722,-0.2553 2.41642,-0.0824 0.286672,0.0623 0.571606,0.1507 0.864968,0.15102 0.165065,1.8e-4 0.331527,-0.0276 0.494268,0 0.111692,0.0189 0.217816,0.0635 0.329512,0.0824 0.111199,0.0188 0.224893,0.0118 0.337634,0.009 0.112744,-0.003 0.227684,-0.002 0.335124,0.0324 0.051,0.0163 0.0996,0.0399 0.15102,0.0549 0.13282,0.0389 0.27479,0.0188 0.41189,0 0.3876,-0.0533 0.77686,-0.0945 1.16702,-0.12357"
         id="path1507"
         inkscape:path-effect="#path-effect1509"
         inkscape:original-d="m 95.539444,167.92871 c 0.719475,-0.0932 1.686474,-0.15124 2.41642,-0.0824 0.292051,0.0275 0.574159,0.12041 0.864968,0.15102 0.161382,0.017 0.334396,-0.0266 0.494268,0 0.307015,0.0512 0.05179,0.0592 0.329512,0.0824 0.220493,0.0184 0.453858,0.007 0.672758,0.0412 0.0529,0.008 0.0983,0.0453 0.15102,0.0549 0.12568,0.0229 0.28336,0 0.41189,0 0.41064,0 0.80049,0.0597 1.16702,-0.12357" />
      <path
         style="fill:none;stroke:#894e00;stroke-width:0.15;stroke-linecap:round;stroke-linejoin:miter;stroke-miterlimit:4;stroke-dasharray:none;stroke-opacity:1"
         d="m 97.557704,169.12319 c 0.08294,0.002 0.165681,0.0117 0.247134,0.0275 0.383183,0.0745 0.721265,0.29064 1.080601,0.44314 0.179668,0.0763 0.367803,0.13735 0.562189,0.15492 0.194386,0.0176 0.396239,-0.0105 0.567682,-0.10379 0.0759,-0.0413 0.14465,-0.0945 0.21968,-0.1373 0.19118,-0.10903 0.41392,-0.14578 0.63156,-0.17848 0.64734,-0.0973 1.2976,-0.17512 1.94961,-0.23341"
         id="path1515"
         inkscape:path-effect="#path-effect1517"
         inkscape:original-d="m 97.557704,169.12319 c 0.110741,0 0.145916,-0.0111 0.247134,0.0275 0.733355,0.27938 1.393538,0.56854 2.210472,0.49427 0.0896,-0.008 0.1367,-0.11137 0.21968,-0.1373 0.20783,-0.0649 0.42048,-0.12401 0.63156,-0.17848 0.6351,-0.1639 1.29584,-0.23341 1.94961,-0.23341" />
      <path
         style="fill:none;stroke:#894e00;stroke-width:0.15;stroke-linecap:round;stroke-linejoin:miter;stroke-miterlimit:4;stroke-dasharray:none;stroke-opacity:1"
         d="m 99.946664,170.94924 c -0.205749,-0.0299 -0.408474,-0.0806 -0.604105,-0.15103 -0.331448,-0.11929 -0.641555,-0.29461 -0.977964,-0.3991 -0.168204,-0.0522 -0.343259,-0.0865 -0.519381,-0.0848 -0.176123,0.002 -0.353719,0.0405 -0.507185,0.12691 -0.190284,0.10717 -0.333656,0.28037 -0.507997,0.41189 -0.342776,0.25859 -0.810562,0.34269 -1.22194,0.21968"
         id="path1519"
         inkscape:path-effect="#path-effect1521"
         inkscape:original-d="m 99.946664,170.94924 c -0.201368,-0.0503 -0.400366,-0.11135 -0.604105,-0.15103 -0.666175,-0.12973 -1.326003,-0.3718 -2.00453,-0.35697 -0.217948,0.005 -0.321691,0.29869 -0.507997,0.41189 -0.357303,0.2171 -0.904726,0.32541 -1.22194,0.21968" />
      <path
         style="fill:none;stroke:#894e00;stroke-width:0.15;stroke-linecap:round;stroke-linejoin:miter;stroke-miterlimit:4;stroke-dasharray:none;stroke-opacity:1"
         d="m 98.148079,172.43204 c 1.186098,0.51913 2.571981,0.56432 3.789381,0.12357 0.19377,-0.0702 0.38592,-0.15271 0.59038,-0.17849 0.20503,-0.0258 0.41722,0.008 0.60411,0.0961"
         id="path1523"
         inkscape:path-effect="#path-effect1525"
         inkscape:original-d="m 98.148079,172.43204 c 1.261376,-0.26005 2.529981,0.17754 3.789381,0.12357 0.2054,-0.009 0.38931,-0.13564 0.59038,-0.17849 0.21423,-0.0456 0.40138,0.0593 0.60411,0.0961" />
      <path
         style="fill:none;stroke:#894e00;stroke-width:0.15;stroke-linecap:round;stroke-linejoin:miter;stroke-miterlimit:4;stroke-dasharray:none;stroke-opacity:1"
         d="m 99.466126,173.90112 c -1.03278,-0.0718 -2.067685,-0.113 -3.102903,-0.12357 -0.356959,-0.004 -0.713954,-0.004 -1.070913,0"
         id="path1527"
         inkscape:path-effect="#path-effect1529"
         inkscape:original-d="m 99.466126,173.90112 c -1.017538,-0.17036 -2.073392,-0.1543 -3.102903,-0.12357 -0.375524,0.0112 -0.712385,0.0896 -1.070913,0" />
      <path
         style="fill:none;stroke:#894e00;stroke-width:0.15;stroke-linecap:round;stroke-linejoin:miter;stroke-miterlimit:4;stroke-dasharray:none;stroke-opacity:1"
         d="m 98.038242,174.5876 c 0.55399,-0.0331 1.107767,-0.0697 1.661288,-0.10984 0.187649,-0.0136 0.37527,-0.0276 0.56292,-0.0412 0.3306,-0.0239 0.66866,-0.0457 0.98853,0.0412 0.12282,0.0334 0.24444,0.0829 0.37168,0.08 0.0636,-0.001 0.12795,-0.0167 0.18138,-0.0513 0.0534,-0.0346 0.095,-0.0896 0.10597,-0.15232 0.004,-0.0226 0.004,-0.046 0,-0.0686"
         id="path1535"
         inkscape:path-effect="#path-effect1537"
         inkscape:original-d="m 98.038242,174.5876 c 0.531479,-0.18834 1.111932,-0.0732 1.661288,-0.10984 0.685,-0.0457 -0.144432,-0.0883 0.56292,-0.0412 0.31755,0.0212 0.66834,0.0905 0.98853,0.0412 0.10771,-0.0166 0.56599,-0.0677 0.65903,-0.12357 0.0196,-0.0118 0,-0.0458 0,-0.0686" />
      <path
         style="fill:none;stroke:#894e00;stroke-width:0.15;stroke-linecap:round;stroke-linejoin:miter;stroke-miterlimit:4;stroke-dasharray:none;stroke-opacity:1"
         d="m 100.86655,171.30621 c 0.27852,-0.32347 0.67604,-0.54211 1.09837,-0.6041 0.32359,-0.0475 0.66002,-0.004 0.96108,0.12356"
         id="path1539"
         inkscape:path-effect="#path-effect1541"
         inkscape:original-d="m 100.86655,171.30621 c 0.36808,-0.40154 0.39429,-0.53523 1.09837,-0.6041 0.2711,-0.0265 1.17215,0.5457 0.96108,0.12356" />
      <path
         style="fill:none;stroke:#894e00;stroke-width:0.15;stroke-linecap:round;stroke-linejoin:miter;stroke-miterlimit:4;stroke-dasharray:none;stroke-opacity:1"
         d="m 97.72246,171.64945 -1.331777,0.34324"
         id="path1543"
         inkscape:path-effect="#path-effect1545"
         inkscape:original-d="m 97.72246,171.64945 c -0.511134,-0.21108 -0.87397,0.57215 -1.331777,0.34324" />
      <path
         style="fill:none;stroke:#894e00;stroke-width:0.15;stroke-linecap:round;stroke-linejoin:miter;stroke-miterlimit:4;stroke-dasharray:none;stroke-opacity:1"
         d="m 95.663011,169.2193 c -0.0099,-0.084 0.0046,-0.17083 0.04119,-0.24713 0.03753,-0.0782 0.09806,-0.1449 0.171493,-0.19099 0.07344,-0.0461 0.159489,-0.0715 0.246152,-0.0741 0.08666,-0.003 0.17374,0.0176 0.251072,0.0568 0.07733,0.0392 0.144842,0.0973 0.196251,0.16709 0.06173,0.0838 0.100143,0.18466 0.109837,0.28832"
         id="path1551"
         inkscape:path-effect="#path-effect1553"
         inkscape:original-d="m 95.663011,169.2193 c 0.0059,-0.0679 -0.02715,-0.19832 0.04119,-0.24713 0.03388,-0.0242 0.80711,-0.0743 0.864968,-0.0412 0.112535,0.0643 0.109837,0.175 0.109837,0.28832" />
      <path
         style="fill:none;stroke:#894e00;stroke-width:0.15;stroke-linecap:round;stroke-linejoin:miter;stroke-miterlimit:4;stroke-dasharray:none;stroke-opacity:1"
         d="m 95.635551,169.71357 1.043455,-0.49428"
         id="path1555"
         inkscape:path-effect="#path-effect1557"
         inkscape:original-d="m 95.635551,169.71357 c 0.403998,0.006 1.313059,0.22478 1.043455,-0.49428" />
      <rect
         style="fill:url(#linearGradient8681);fill-opacity:1;stroke:#dcdcdc;stroke-width:0;stroke-linecap:round;stroke-linejoin:miter;stroke-miterlimit:4;stroke-dasharray:none"
         id="rect1023-3-8-7"
         width="8.4666672"
         height="8.4666662"
         x="94.921608"
         y="166.87173"
         ry="0" />
      <path
         style="fill:none;stroke:#894e00;stroke-width:0.15;stroke-linecap:round;stroke-linejoin:miter;stroke-miterlimit:4;stroke-dasharray:none;stroke-opacity:1"
         d="m 102.58276,173.79128 h 0.34324 c 0.17851,0 0.35724,0.0103 0.53546,0 0.46908,-0.027 0.91691,-0.24195 1.38669,-0.23341 0.15309,0.003 0.30504,0.0295 0.45308,0.0686 0.14571,0.0385 0.28823,0.0891 0.42562,0.15103"
         id="path1149"
         inkscape:path-effect="#path-effect1151"
         inkscape:original-d="m 102.58276,173.79128 c 0.11441,0 0.22883,0 0.34324,0 0.16185,0 0.37807,0.037 0.53546,0 0.46399,-0.10918 0.89944,-0.25905 1.38669,-0.23341 0.13974,0.007 0.31986,0.0242 0.45308,0.0686 0.13923,0.0464 0.28345,0.15103 0.42562,0.15103"
         clip-path="url(#clipPath8906)" />
      <path
         style="fill:none;stroke:#894e00;stroke-width:0.15;stroke-linecap:round;stroke-linejoin:miter;stroke-miterlimit:4;stroke-dasharray:none;stroke-opacity:1"
         d="m 95.53944,167.92891 c 0.782071,-0.2267 1.620722,-0.2553 2.41642,-0.0824 0.286673,0.0623 0.571607,0.1507 0.86497,0.15102 0.165066,1.8e-4 0.331528,-0.0276 0.49427,0 0.111691,0.0189 0.217815,0.0635 0.32951,0.0824 0.111199,0.0188 0.224893,0.0118 0.337635,0.009 0.112745,-0.003 0.227685,-0.002 0.335125,0.0324 0.051,0.0163 0.0996,0.0399 0.15102,0.0549 0.13282,0.0389 0.27479,0.0188 0.41189,0 0.3876,-0.0533 0.77686,-0.0945 1.16702,-0.12357"
         id="path1507-5-5"
         inkscape:path-effect="#path-effect8643"
         inkscape:original-d="m 95.53944,167.92891 c 0.71948,-0.0932 1.68647,-0.15124 2.41642,-0.0824 0.29205,0.0275 0.57416,0.12041 0.86497,0.15102 0.16138,0.017 0.33439,-0.0266 0.49427,0 0.30701,0.0512 0.0518,0.0592 0.32951,0.0824 0.22049,0.0184 0.45386,0.007 0.67276,0.0412 0.0529,0.008 0.0983,0.0453 0.15102,0.0549 0.12568,0.0229 0.28336,0 0.41189,0 0.41064,0 0.80049,0.0597 1.16702,-0.12357" />
      <path
         style="fill:none;stroke:#894e00;stroke-width:0.15;stroke-linecap:round;stroke-linejoin:miter;stroke-miterlimit:4;stroke-dasharray:none;stroke-opacity:1"
         d="m 97.5577,169.12339 c 0.08294,0.002 0.165679,0.0117 0.24713,0.0275 0.383185,0.0745 0.721268,0.29064 1.080605,0.44314 0.179669,0.0762 0.367805,0.13735 0.562191,0.15493 0.194387,0.0176 0.396241,-0.0105 0.567684,-0.1038 0.0759,-0.0413 0.14465,-0.0945 0.21968,-0.1373 0.19118,-0.10903 0.41392,-0.14578 0.63156,-0.17848 0.64734,-0.0973 1.2976,-0.17512 1.94961,-0.23341"
         id="path1515-7-8"
         inkscape:path-effect="#path-effect8647"
         inkscape:original-d="m 97.5577,169.12339 c 0.11074,0 0.14592,-0.0111 0.24713,0.0275 0.73336,0.27938 1.39354,0.56854 2.21048,0.49427 0.0896,-0.008 0.1367,-0.11137 0.21968,-0.1373 0.20783,-0.0649 0.42048,-0.12401 0.63156,-0.17848 0.6351,-0.1639 1.29584,-0.23341 1.94961,-0.23341" />
      <path
         style="fill:none;stroke:#894e00;stroke-width:0.15;stroke-linecap:round;stroke-linejoin:miter;stroke-miterlimit:4;stroke-dasharray:none;stroke-opacity:1"
         d="m 99.94666,170.94944 c -0.205748,-0.0299 -0.408471,-0.0806 -0.6041,-0.15103 -0.331449,-0.11929 -0.641558,-0.29462 -0.977969,-0.3991 -0.168205,-0.0523 -0.343261,-0.0865 -0.519384,-0.0848 -0.176124,0.002 -0.353721,0.0405 -0.507187,0.12691 -0.190282,0.10717 -0.333651,0.28037 -0.50799,0.41189 -0.342774,0.25859 -0.810562,0.34269 -1.22194,0.21968"
         id="path1519-7-2"
         inkscape:path-effect="#path-effect8651"
         inkscape:original-d="m 99.94666,170.94944 c -0.20137,-0.0503 -0.40037,-0.11135 -0.6041,-0.15103 -0.66618,-0.12973 -1.32601,-0.3718 -2.00454,-0.35697 -0.21794,0.005 -0.32169,0.29869 -0.50799,0.41189 -0.35731,0.2171 -0.90473,0.32541 -1.22194,0.21968" />
      <path
         style="display:none;fill:none;stroke:#894e00;stroke-width:0.15;stroke-linecap:round;stroke-linejoin:miter;stroke-miterlimit:4;stroke-dasharray:none;stroke-opacity:1"
         d="m 98.14808,172.43224 c 1.186097,0.51913 2.57198,0.56432 3.78938,0.12357 0.19377,-0.0702 0.38592,-0.15271 0.59038,-0.17849 0.20503,-0.0258 0.41722,0.008 0.60411,0.0961"
         id="path1523-8-1"
         inkscape:path-effect="#path-effect8655"
         inkscape:original-d="m 98.14808,172.43224 c 1.26137,-0.26005 2.52998,0.17754 3.78938,0.12357 0.2054,-0.009 0.38931,-0.13564 0.59038,-0.17849 0.21423,-0.0456 0.40138,0.0593 0.60411,0.0961" />
      <path
         style="fill:none;stroke:#894e00;stroke-width:0.15;stroke-linecap:round;stroke-linejoin:miter;stroke-miterlimit:4;stroke-dasharray:none;stroke-opacity:1"
         d="m 98.03824,174.5878 c 0.55399,-0.0331 1.107769,-0.0697 1.66129,-0.10984 0.187649,-0.0136 0.37527,-0.0276 0.56292,-0.0412 0.3306,-0.0239 0.66866,-0.0457 0.98853,0.0412 0.12282,0.0334 0.24444,0.0829 0.37168,0.08 0.0636,-0.001 0.12795,-0.0167 0.18138,-0.0513 0.0534,-0.0346 0.095,-0.0896 0.10597,-0.15232 0.004,-0.0226 0.004,-0.046 0,-0.0686"
         id="path1535-2-1"
         inkscape:path-effect="#path-effect8659"
         inkscape:original-d="m 98.03824,174.5878 c 0.53148,-0.18834 1.11193,-0.0732 1.66129,-0.10984 0.685,-0.0457 -0.14444,-0.0883 0.56292,-0.0412 0.31755,0.0212 0.66834,0.0905 0.98853,0.0412 0.10771,-0.0166 0.56599,-0.0677 0.65903,-0.12357 0.0196,-0.0118 0,-0.0458 0,-0.0686" />
      <path
         style="fill:none;stroke:#894e00;stroke-width:0.15;stroke-linecap:round;stroke-linejoin:miter;stroke-miterlimit:4;stroke-dasharray:none;stroke-opacity:1"
         d="m 100.86655,171.30641 c 0.27852,-0.32347 0.67604,-0.54211 1.09837,-0.6041 0.32359,-0.0475 0.66002,-0.004 0.96108,0.12356"
         id="path1539-4-9"
         inkscape:path-effect="#path-effect8663"
         inkscape:original-d="m 100.86655,171.30641 c 0.36808,-0.40154 0.39429,-0.53523 1.09837,-0.6041 0.2711,-0.0265 1.17215,0.5457 0.96108,0.12356" />
      <path
         style="fill:none;stroke:#894e00;stroke-width:0.15;stroke-linecap:round;stroke-linejoin:miter;stroke-miterlimit:4;stroke-dasharray:none;stroke-opacity:1"
         d="m 97.72246,171.64965 -1.33178,0.34324"
         id="path1543-2-7"
         inkscape:path-effect="#path-effect8667"
         inkscape:original-d="m 97.72246,171.64965 c -0.51114,-0.21108 -0.87397,0.57215 -1.33178,0.34324" />
      <path
         id="path1551-0-9"
         style="fill:none;stroke:#894e00;stroke-width:0.566929;stroke-linecap:round;stroke-linejoin:miter;stroke-miterlimit:4;stroke-dasharray:none;stroke-opacity:1"
         d="M 4.5371094,6.9375 C 4.2095642,6.9473268 3.8830373,7.0445138 3.6054688,7.21875 3.3279154,7.3929484 2.4384043,7.680587 2.2965586,7.976146 2.1582279,8.264524 3.128093,9.1239082 3.7567503,9.352008 4.91601,9.7726298 6.3106811,9.6042513 7.4498224,9.1318504 7.8528696,8.9647071 8.8437058,9.3504317 8.4281378,8.2621642 8.2338398,7.998391 6.180268,7.3005012 5.8879971,7.1523438 5.5957225,7.0041863 4.8646432,6.9261614 4.5371094,6.9375 Z"
         transform="matrix(0.26458333,0,0,0.26458333,94.921609,166.87153)"
         sodipodi:nodetypes="cccaacsc" />
      <path
         style="fill:none;stroke:#894e00;stroke-width:0.15;stroke-linecap:round;stroke-linejoin:miter;stroke-miterlimit:4;stroke-dasharray:none;stroke-opacity:1"
         d="m 94.116084,173.79148 h 0.343236 c 0.178515,0 0.35724,0.0102 0.53546,0 0.469084,-0.027 0.916908,-0.24195 1.38669,-0.23341 0.153092,0.003 0.305042,0.0295 0.45308,0.0686 0.145713,0.0385 0.288233,0.0891 0.42562,0.15103"
         id="path1149-6"
         inkscape:path-effect="#path-effect8679"
         inkscape:original-d="m 94.116084,173.79148 c 0.114406,0 0.228826,0 0.343236,0 0.16185,0 0.37807,0.037 0.53546,0 0.46399,-0.10918 0.89944,-0.25905 1.38669,-0.23341 0.13974,0.007 0.31986,0.0242 0.45308,0.0686 0.13923,0.0464 0.28345,0.15103 0.42562,0.15103"
         clip-path="url(#clipPath8939)" />
      <rect
         style="opacity:0.777943;fill:#f9f9f9;stroke:#dc32dc;stroke-width:0;stroke-linecap:round;stroke-linejoin:round;stroke-miterlimit:4;stroke-dasharray:none"
         id="rect939"
         width="6.8068175"
         height="5.5411625"
         x="95.775948"
         y="168.25011"
         ry="0.36891672" />
      <g
         id="g17588"
         inkscape:label="Knife"
         transform="matrix(-0.04516161,0.0115295,0.01084251,0.04802309,112.76736,152.32624)">
        <path
           id="path5875-5"
           style="fill:#502d16;fill-opacity:1;stroke:#502d16;stroke-width:5.95524;stroke-linecap:butt;stroke-linejoin:miter;stroke-miterlimit:4;stroke-dasharray:none;stroke-opacity:1"
           d="m 314.63393,341.40923 c 1.66511,-4.95897 3.29535,-9.92965 4.8905,-14.91155 h 4e-5 v 0 c 1.32252,-0.84717 2.95869,-1.19165 4.51052,-0.94962 1.55184,0.24203 3.00542,1.06839 4.00713,2.27806 0.79413,0.95898 1.30102,2.13852 1.54154,3.36017 0.24051,1.22166 0.22153,2.48543 0.0369,3.7168 -0.369,2.46272 -1.38187,4.77373 -2.28838,7.0931 -0.41922,1.07258 -0.81745,2.15338 -1.19444,3.24153"
           clip-path="none"
           sodipodi:nodetypes="cccsssccsc" />
        <path
           id="path18269"
           style="fill:#502d16;fill-opacity:1;stroke:#502d16;stroke-width:5.95524;stroke-linecap:butt;stroke-linejoin:miter;stroke-miterlimit:4;stroke-dasharray:none;stroke-opacity:1"
           d="m 326.30589,344.36335 c -0.7632,3.12233 -10.58421,42.84733 -12.4599,45.45676 -0.81478,1.13351 -1.83185,2.14161 -3.05668,2.8113 -1.22483,0.6697 -2.66842,0.98367 -4.04137,0.73121 -1.65536,-0.30439 -3.10153,-1.42139 -3.99275,-2.84918 -0.89123,-1.42779 -1.26027,-3.14003 -1.24963,-4.82311 0.0159,-2.51321 12.72711,-43.21475 13.59918,-45.59265"
           clip-path="none"
           sodipodi:nodetypes="csssssc" />
        <path
           id="Path 6-7"
           class="shp2"
           d="m 337.43704,242.39875 c -5.79456,22.82218 -9.84178,43.36403 -14.52346,61.48153 -2.43339,7.00512 -4.55062,15.96175 -5.64134,19.69509 -1.27551,4.36588 -2.65702,6.46626 -1.81398,6.60919 10.0314,3.20538 25.92566,8.89659 41.17576,7.82629 1.00381,-1.54936 4.49255,-14.78376 5.69783,-22.3901 1.57486,-9.93869 2.32995,-20.06808 1.96419,-30.12413 -0.28327,-7.78795 -0.87803,-15.72223 -3.21204,-23.1576 -2.01058,-6.40502 -5.15378,-12.54222 -9.13004,-17.95111 -2.4992,-3.39965 -7.14367,-8.50207 -9.05691,-8.84332 -2.37309,-0.41917 -4.05133,4.12591 -5.46001,6.85416 z"
           style="fill:#c3c3c3;stroke-width:1.60751"
           sodipodi:nodetypes="ccsccaaaacc"
           clip-path="none" />
      </g>
    </g>
  </g>
</svg>
