<?xml version="1.0" encoding="UTF-8" standalone="no"?>
<svg
   version="1.2"
   viewBox="0 0 325 325"
   width="325"
   height="325"
   id="svg26"
   sodipodi:docname="scent-from-above.svg"
   inkscape:version="1.1 (c68e22c387, 2021-05-23)"
   xmlns:inkscape="http://www.inkscape.org/namespaces/inkscape"
   xmlns:sodipodi="http://sodipodi.sourceforge.net/DTD/sodipodi-0.dtd"
   xmlns="http://www.w3.org/2000/svg"
   xmlns:svg="http://www.w3.org/2000/svg"
   xmlns:rdf="http://www.w3.org/1999/02/22-rdf-syntax-ns#"
   xmlns:cc="http://creativecommons.org/ns#"
   xmlns:dc="http://purl.org/dc/elements/1.1/">
  <defs
     id="defs30">
    <inkscape:path-effect
       effect="spiro"
       id="path-effect80121"
       is_visible="true"
       lpeversion="1" />
    <inkscape:path-effect
       effect="spiro"
       id="path-effect80117"
       is_visible="true"
       lpeversion="1" />
    <inkscape:path-effect
       effect="spiro"
       id="path-effect80113"
       is_visible="true"
       lpeversion="1" />
    <inkscape:path-effect
       effect="spiro"
       id="path-effect80105"
       is_visible="true"
       lpeversion="1" />
    <inkscape:path-effect
       effect="spiro"
       id="path-effect78316"
       is_visible="true"
       lpeversion="1" />
    <inkscape:path-effect
       effect="spiro"
       id="path-effect77654"
       is_visible="true"
       lpeversion="1" />
    <inkscape:path-effect
       effect="spiro"
       id="path-effect74725"
       is_visible="true"
       lpeversion="1" />
    <inkscape:path-effect
       effect="spiro"
       id="path-effect71332"
       is_visible="true"
       lpeversion="1" />
    <inkscape:path-effect
       effect="spiro"
       id="path-effect71328"
       is_visible="true"
       lpeversion="1" />
    <inkscape:path-effect
       effect="spiro"
       id="path-effect69447"
       is_visible="true"
       lpeversion="1" />
    <inkscape:path-effect
       effect="spiro"
       id="path-effect66635"
       is_visible="true"
       lpeversion="1" />
    <inkscape:path-effect
       effect="spiro"
       id="path-effect66631"
       is_visible="true"
       lpeversion="1" />
    <inkscape:path-effect
       effect="spiro"
       id="path-effect64886"
       is_visible="true"
       lpeversion="1" />
    <inkscape:path-effect
       effect="spiro"
       id="path-effect62187"
       is_visible="true"
       lpeversion="1" />
    <inkscape:path-effect
       effect="spiro"
       id="path-effect18940"
       is_visible="true"
       lpeversion="1" />
    <inkscape:path-effect
       effect="spiro"
       id="path-effect18241"
       is_visible="true"
       lpeversion="1" />
    <inkscape:path-effect
       effect="spiro"
       id="path-effect5877"
       is_visible="true"
       lpeversion="1" />
    <inkscape:path-effect
       effect="spiro"
       id="path-effect4798"
       is_visible="true"
       lpeversion="1" />
    <linearGradient
       id="linearGradient2378"
       inkscape:swatch="solid">
      <stop
         style="stop-color:#fffeff;stop-opacity:1;"
         offset="0"
         id="stop2376" />
    </linearGradient>
  </defs>
  <sodipodi:namedview
     id="namedview28"
     pagecolor="#ffffff"
     bordercolor="#666666"
     borderopacity="1.0"
     inkscape:pageshadow="2"
     inkscape:pageopacity="0.0"
     inkscape:pagecheckerboard="true"
     showgrid="false"
     inkscape:zoom="2.45"
     inkscape:cx="82.44898"
     inkscape:cy="247.14286"
     inkscape:window-width="1920"
     inkscape:window-height="1047"
     inkscape:window-x="-9"
     inkscape:window-y="-9"
     inkscape:window-maximized="1"
     inkscape:current-layer="Background"
     fit-margin-top="15"
     lock-margins="true"
     fit-margin-left="15"
     fit-margin-right="15"
     fit-margin-bottom="15" />
  <title
     id="title2">scent-from-above</title>
  <style
     id="style4">
		tspan { white-space:pre }
		.shp0 { fill: #fffeff } 
		.shp1 { fill: #000000 } 
		.shp2 { fill: #c3c3c3 } 
		.shp3 { fill: #1e9543 } 
	</style>
  <g
     id="Background"
     transform="translate(-69.505514,-111.19822)">
    <g
       id="g17588"
       inkscape:label="Knife"
       transform="matrix(0.77152017,0,0,0.77152017,65.073426,54.792085)">
      <path
         id="path5875-5"
         style="fill:#502d16;fill-opacity:1;stroke:#502d16;stroke-width:5.95524;stroke-linecap:butt;stroke-linejoin:miter;stroke-miterlimit:4;stroke-dasharray:none;stroke-opacity:1"
         d="m 314.63393,341.40923 c 1.66511,-4.95897 3.29535,-9.92965 4.8905,-14.91155 h 4e-5 v 0 c 1.32252,-0.84717 2.95869,-1.19165 4.51052,-0.94962 1.55184,0.24203 3.00542,1.06839 4.00713,2.27806 0.79413,0.95898 1.30102,2.13852 1.54154,3.36017 0.24051,1.22166 0.22153,2.48543 0.0369,3.7168 -0.369,2.46272 -1.38187,4.77373 -2.28838,7.0931 -0.41922,1.07258 -0.81745,2.15338 -1.19444,3.24153" />
      <path
         id="path18269"
         style="fill:#502d16;fill-opacity:1;stroke:#502d16;stroke-width:5.95524;stroke-linecap:butt;stroke-linejoin:miter;stroke-miterlimit:4;stroke-dasharray:none;stroke-opacity:1"
         d="m 317.29832,380.8858 c -0.7632,3.12233 -1.57664,6.32488 -3.45233,8.93431 -0.81478,1.13351 -1.83185,2.14161 -3.05668,2.8113 -1.22483,0.6697 -2.66842,0.98367 -4.04137,0.73121 -1.65536,-0.30439 -3.10153,-1.42139 -3.99275,-2.84918 -0.89123,-1.42779 -1.26027,-3.14003 -1.24963,-4.82311 0.0159,-2.51321 0.82922,-4.91328 1.70129,-7.29118" />
      <path
         id="Path 6-7"
         class="shp2"
         d="m 337.43704,242.39875 c -5.79456,22.82218 -9.84178,43.36403 -14.52346,61.48153 -2.43339,7.00512 -4.55062,15.96175 -5.64134,19.69509 -1.27551,4.36588 -2.65702,6.46626 -1.81398,6.60919 10.0314,3.20538 25.92566,8.89659 41.17576,7.82629 1.00381,-1.54936 4.49255,-14.78376 5.69783,-22.3901 1.57486,-9.93869 2.32995,-20.06808 1.96419,-30.12413 -0.28327,-7.78795 -0.87803,-15.72223 -3.21204,-23.1576 -2.01058,-6.40502 -5.15378,-12.54222 -9.13004,-17.95111 -2.4992,-3.39965 -7.14367,-8.50207 -9.05691,-8.84332 -2.37309,-0.41917 -4.05133,4.12591 -5.46001,6.85416 z"
         style="fill:#c3c3c3;stroke-width:1.60751"
         sodipodi:nodetypes="ccsccaaaacc" />
    </g>
    <g
       id="g61881"
       inkscape:label="Carrot"
       transform="translate(90.255805,-7.1900471)">
      <path
         id="Path 5-7"
         class="shp3"
         d="m 62.83532,235.94163 c -0.25,0.38 -1.34,0.8 -2.41,0.94 -1.08,0.13 -3.54,0.55 -5.46,0.93 -1.92,0.38 -4.62,0.84 -6,1.04 -1.37,0.19 -4.08,1.4 -6,2.69 -1.920003,1.29001 -4.290003,2.65001 -5.250003,3.02001 -1.14,0.44 -1.58,1.38 -1.25,2.68 0.37,1.47 -0.41,2.6 -2.94,4.25 -1.89,1.24 -4.08,3.38 -4.86,4.75 -0.79,1.38 -1.27,3.06 -1.07,3.75 0.2,0.69 1.27,1.25 2.37,1.25 1.1,0 2.32,0.56 2.72,1.25 0.4,0.69 0.88,2.15 1.06,3.25 0.19,1.1 1.44,3.01 2.78,4.25 1.69,1.56 2.28,2.94 1.91,4.5 -0.43,1.83 0.23,2.67 3.5,4.5 2.220003,1.24 4.700003,2.25 5.530003,2.25 0.83,0 1.95,1.13 2.5,2.5 0.55,1.38 1.42,6.21 1.94,10.75 0.52,4.54 1.43,10.5 2.02,13.25 0.59,2.75 1.86,5.51 2.81,6.13 0.96,0.64 3.03,0.86 4.66,0.5 1.67,-0.36 3.07,-1.38 3.25,-2.38 0.18,-0.96 0.99,-1.75 1.82,-1.75 0.83,0 1.55,-0.79 1.62,-1.75 0.06,-0.96 0.01,-2.2 -0.13,-2.75 -0.13,-0.55 -0.61,-7.07 -1.05,-14.5 -0.45,-7.43 -1.27,-15.53 -1.82,-18 -0.54,-2.47 -0.62,-4.95 -0.17,-5.5 0.45,-0.55 2.68,-1.34 4.94,-1.75 3.32,-0.61 4.4,-1.37 5.63,-4 0.84,-1.79 1.5,-3.7 1.46,-4.25 -0.03,-0.55 -0.83,-1.52 -1.77,-2.16 -1.61,-1.09 -1.61,-1.27 0.05,-3 1.68,-1.76 1.62,-2.02 -1.25,-6.09 -1.66,-2.34 -3.46,-4.25 -4.01,-4.25 -0.55,0 -1.9,-1.57001 -3,-3.50001 -1.1,-1.93 -2.37,-3.5 -2.83,-3.5 -0.46,0 -1.04,0.31 -1.3,0.7 z"
         style="fill:#1e9543" />
      <path
         id="path18938-9"
         style="fill:#ff6600;fill-opacity:1;stroke:#ff6600;stroke-width:5;stroke-linecap:butt;stroke-linejoin:miter;stroke-miterlimit:4;stroke-dasharray:none;stroke-opacity:1"
         d="m 72.95038,344.56069 c 0,0 6.444372,3.25192 6.404969,1.25923 -0.162755,-8.23171 -0.677221,-20.80593 -3.790736,-28.42785 -1.037294,-2.5393 -2.422307,-4.98758 -4.425933,-6.86095 -2.003627,-1.87338 -4.687057,-3.12715 -7.427407,-3.00658 -1.714147,0.0754 -3.38786,0.68363 -4.808773,1.6454 -1.420914,0.96177 -2.593562,2.26832 -3.484863,3.73446 -1.782602,2.93229 -2.425098,6.4236 -2.602404,9.85062 v 0 c -0.483574,9.3467 2.225181,18.47929 4.418133,27.61158"
         sodipodi:nodetypes="cssssssssc" />
      <path
         id="path62193"
         style="fill:#ff6600;fill-opacity:1;stroke:#ff6600;stroke-width:5;stroke-linecap:butt;stroke-linejoin:miter;stroke-miterlimit:4;stroke-dasharray:none;stroke-opacity:1"
         d="m 61.894237,374.28231 c 0.602759,3.04341 1.104669,5.15637 1.913686,8.15266 2.22809,8.25203 5.515161,16.23037 7.03982,24.64082 0.220222,1.21481 0.413092,2.46549 1.017831,3.54185 0.30237,0.53818 0.708446,1.02516 1.218906,1.37229 0.51046,0.34712 1.129386,0.54816 1.745523,0.51022 0.658037,-0.0405 1.284519,-0.35258 1.76035,-0.80891 0.475832,-0.45633 0.807301,-1.0496 1.011332,-1.67651 0.408063,-1.25384 0.318427,-2.60644 0.272618,-3.92421 -0.120939,-3.47904 0.09557,-6.96972 0.645486,-10.40716 0.427379,-5.84146 0.718312,-11.6929 0.87248,-17.54795 0.05188,-1.97017 0.0051,-3.10866 0.02596,-5.07941"
         sodipodi:nodetypes="csssssssscsc" />
    </g>
    <g
       id="g84118"
       inkscape:label="Body">
      <ellipse
         style="fill:none;fill-opacity:1;stroke:#000000;stroke-width:4.32169;stroke-linecap:round;stroke-linejoin:round;stroke-miterlimit:4;stroke-dasharray:none"
         id="path4499"
         cx="307.64304"
         cy="333.27615"
         rx="16.10709"
         ry="15.358199" />
      <ellipse
         style="fill:none;fill-opacity:1;stroke:#000000;stroke-width:4.32169;stroke-linecap:round;stroke-linejoin:round;stroke-miterlimit:4;stroke-dasharray:none"
         id="path4499-9"
         cx="160.15582"
         cy="353.13629"
         rx="16.10709"
         ry="15.358199" />
      <path
         style="fill:none;stroke:#000000;stroke-width:4;stroke-linecap:round;stroke-linejoin:round;stroke-miterlimit:4;stroke-dasharray:none;stroke-opacity:1"
         d="m 264.19199,309.3582 c 9.24535,5.38872 16.51712,14.08358 20.18582,24.13622 2.13905,5.86124 3.07119,12.08584 3.83392,18.27841 1.32951,10.79422 2.18316,21.66929 1.9047,32.54152 -0.19063,7.44298 -0.91229,14.8723 -2.15769,22.21282 -5.51908,4.11018 -11.56654,7.51006 -17.94627,10.08938 -9.07629,3.66954 -18.78481,5.66331 -28.54972,6.36419 -7.05716,0.50653 -14.16934,0.34478 -21.17828,-0.62212 -6.88282,-0.9495 -13.65823,-2.6755 -20.15644,-5.13477 -1.73052,-5.62014 -3.07984,-11.35763 -4.0356,-17.15997 -1.55177,-9.42069 -2.06313,-18.98342 -2.25021,-28.52923 -0.29254,-14.92728 0.35741,-30.49025 7.36552,-43.6734 2.1539,-4.05176 4.87848,-7.79961 8.06818,-11.09837"
         id="path64884"
         inkscape:path-effect="#path-effect64886"
         inkscape:original-d="m 264.19199,309.3582 c 9.83272,1.47462 15.60843,14.69958 20.18582,24.13622 2.71696,5.60122 3.01079,12.10768 3.83392,18.27841 1.43668,10.77034 2.11314,21.67778 1.9047,32.54152 -0.14271,7.43775 -2.15769,22.21282 -2.15769,22.21282 0,0 -11.53753,7.63498 -17.94627,10.08938 -9.10525,3.4871 -18.84351,5.4395 -28.54972,6.36419 -7.03064,0.6698 -14.18432,0.35923 -21.17828,-0.62212 -6.86614,-0.96341 -14.11966,-1.42241 -20.15644,-5.13477 -3.71784,-4.85759 -3.12936,-11.35423 -4.0356,-17.15997 -1.47121,-9.42515 -2.67155,-18.99926 -2.25021,-28.52923 0.65208,-14.74897 0.40016,-29.57422 7.36552,-43.6734 2.22369,-3.92475 4.55117,-8.29068 8.06818,-11.09837"
         sodipodi:nodetypes="caaacaaasaass" />
    </g>
    <g
       id="g83953"
       inkscape:label="Head">
      <path
         id="Path 8"
         class="shp1"
         d="m 235.54285,293.21526 c 0.84803,2.19416 3.15437,3.28473 5.28185,3.87773 5.11941,1.40392 10.50067,1.70984 15.77874,1.30024 1.6578,-0.13888 3.32108,-0.30017 4.91222,-0.81086 1.13932,-0.28673 2.49697,-0.86181 2.7265,-2.1604 -0.1427,-1.29333 -1.59582,-1.64905 -2.68542,-1.50437 -1.33795,0.0908 -2.66655,0.42316 -4.0108,0.27952 -4.77526,0.24535 -9.69645,0.98109 -14.3655,-0.43623 -1.59021,-0.49237 -3.09514,-1.20827 -4.65364,-1.78426 -0.9517,-0.32655 -2.46134,-0.37033 -2.89655,0.73684 -0.0584,0.16027 -0.0912,0.33085 -0.0874,0.50179 z"
         sodipodi:nodetypes="ssscccccs" />
      <path
         style="fill:none;stroke:#000000;stroke-width:4;stroke-linecap:round;stroke-linejoin:miter;stroke-miterlimit:4;stroke-dasharray:none;stroke-opacity:1"
         d="m 271.58695,249.55521 c 5.83042,4.53591 10.17518,10.95078 12.22385,18.04805 2.26856,7.85902 1.66887,16.57145 -1.96054,23.90207 -4.59881,9.28858 -13.57128,15.74743 -23.09075,19.84699 -9.28627,3.99913 -19.3932,6.09833 -29.50391,6.06052 -6.20492,-0.0232 -12.47247,-0.86249 -18.22565,-3.18682 -5.75317,-2.32434 -10.97961,-6.21283 -14.26658,-11.47566 -3.69346,-5.91366 -4.72964,-13.21377 -3.94817,-20.14214 0.55783,-4.94557 2.00859,-9.81218 4.46037,-14.1433 1.87983,-3.32074 4.34025,-6.31177 7.23616,-8.79668"
         id="path69445"
         inkscape:path-effect="#path-effect69447"
         inkscape:original-d="m 271.58695,249.55521 c 6.97845,3.67963 10.37879,11.0202 12.22385,18.04805 2.02995,7.73209 1.66929,16.77956 -1.96054,23.90207 -4.60846,9.04277 -13.97976,15.37492 -23.09075,19.84699 -9.0128,4.42388 -19.52534,7.16921 -29.50391,6.06052 -11.80978,-1.31215 -25.11128,-5.35044 -32.49223,-14.66248 -4.24989,-5.3618 -2.75468,-13.4124 -3.94817,-20.14214 -0.80674,-5.10369 2.10373,-9.79788 4.46037,-14.1433 1.81007,-3.3376 7.23616,-8.79668 7.23616,-8.79668"
         sodipodi:nodetypes="caaaaaaac" />
      <path
         style="fill:none;stroke:#000000;stroke-width:4.1;stroke-linecap:round;stroke-linejoin:round;stroke-miterlimit:4;stroke-dasharray:none;stroke-opacity:1"
         d="m 254.60469,267.27138 c 2.2486,1.65826 4.39009,3.46175 6.40667,5.39551 1.98076,1.8994 3.841,3.92446 5.56584,6.05895 -1.50477,0.96917 -3.07547,1.83595 -4.69765,2.59237 -1.81609,0.84684 -3.69669,1.55529 -5.62013,2.11718"
         id="path71326"
         inkscape:path-effect="#path-effect71328"
         inkscape:original-d="m 254.60469,267.27138 c 3.81604,-0.10707 4.39038,3.46425 6.40667,5.39551 1.98052,1.897 6.90284,3.78552 5.56584,6.05895 -1.72646,1.63249 -3.3706,1.90609 -4.69765,2.59237 -1.5649,0.80927 -2.84828,1.8935 -5.62013,2.11718"
         sodipodi:nodetypes="cacsc" />
    </g>
    <g
       id="g83948"
       inkscape:label="Hat">
      <path
         style="fill:none;stroke:#000000;stroke-width:4;stroke-linecap:round;stroke-linejoin:round;stroke-miterlimit:4;stroke-dasharray:none;stroke-opacity:1"
         d="m 194.429,258.16849 c 6.13069,0.8737 12.31142,1.3961 18.50178,1.56379 8.68153,0.23517 17.38158,-0.228 25.99011,-1.37582 7.39488,-0.98599 14.73765,-2.48096 21.82567,-4.80828 6.03558,-1.98175 11.87372,-4.5643 17.40014,-7.69708 -0.40698,-6.3684 -0.89871,-12.73138 -1.47501,-19.0867 -0.63413,-6.99297 -1.37081,-13.97799 -2.33193,-20.93357 -0.68325,-4.94469 -1.48027,-9.87758 -1.9081,-14.85088 -0.53844,-6.25905 -0.47399,-12.67196 1.35836,-18.68097 2.14259,-7.02641 6.56895,-13.10946 9.57703,-19.81115 1.50514,-3.35331 2.66718,-6.93996 2.65521,-10.61555 -0.006,-1.8378 -0.31056,-3.68286 -0.98597,-5.39205 -0.67542,-1.7092 -1.72817,-3.27977 -3.11662,-4.48382 -2.16823,-1.88028 -5.09018,-2.78931 -7.9598,-2.74497 -2.86962,0.0443 -5.68209,0.99705 -8.1459,2.46889 -2.455,1.46658 -4.57328,3.42673 -6.89723,5.0932 -2.32396,1.66647 -4.97643,3.07391 -7.83421,3.17861 -2.72133,0.0997 -5.34847,-0.99177 -7.72204,-2.32659 -2.37357,-1.33482 -4.60714,-2.93675 -7.10804,-4.0143 -2.89385,-1.24686 -6.12386,-1.75307 -9.24287,-1.30501 -3.11901,0.44807 -6.11315,1.86981 -8.33109,4.10806 -1.98391,2.00207 -3.28927,4.55778 -4.84104,6.91069 -0.77589,1.17645 -1.62351,2.3144 -2.63721,3.29342 -1.01369,0.97901 -2.20187,1.79806 -3.53244,2.26243 -1.31977,0.4606 -2.7499,0.56087 -4.13871,0.40222 -1.3888,-0.15866 -2.73977,-0.57026 -4.0304,-1.10713 -2.58125,-1.07373 -4.92609,-2.64124 -7.44603,-3.85189 -2.9948,-1.43879 -6.30815,-2.37396 -9.6214,-2.12635 -1.65662,0.12381 -3.29765,0.54606 -4.77566,1.30448 -1.47802,0.75843 -2.78944,1.85791 -3.73429,3.22429 -1.65636,2.39531 -2.09561,5.47688 -1.7259,8.36553 0.36972,2.88865 1.48436,5.62732 2.72127,8.26381 2.71553,5.78816 6.06155,11.2542 9.12057,16.8684 4.0204,7.37861 7.57867,15.10981 9.27431,23.33978 1.03457,5.02143 1.36192,10.16722 1.34597,15.29409 -0.0213,6.85626 -0.65121,13.69626 -0.83536,20.55008 -0.16779,6.24479 0.035,12.49952 0.60683,18.72034 z"
         id="path74723"
         inkscape:path-effect="#path-effect74725"
         inkscape:original-d="m 194.429,258.16849 c 0,0 12.31329,1.46652 18.50178,1.56379 8.67443,0.13634 17.39339,-0.20935 25.99011,-1.37582 7.38204,-1.00164 14.74639,-2.48849 21.82567,-4.80828 6.02686,-1.97492 17.40014,-7.69708 17.40014,-7.69708 -0.16469,-5.69702 -0.87585,-12.73369 -1.47501,-19.0867 -0.65923,-6.99 -1.06518,-12.20351 -2.33193,-20.93357 -0.69753,-4.80715 -1.77037,-9.86179 -1.9081,-14.85088 -0.17229,-6.24105 -0.25538,-12.6497 1.35836,-18.68097 1.89585,-7.08561 8.19258,-12.60814 9.57703,-19.81115 1.29246,-6.72441 3.522,-15.78044 -1.44738,-20.49142 -3.89667,-3.69403 -10.89963,-1.59015 -16.1057,-0.27608 -5.46038,1.37826 -9.10795,7.969 -14.73144,8.27181 -5.36849,0.28908 -9.49439,-5.6816 -14.83008,-6.34089 -5.88726,-0.72744 -12.37595,-0.0552 -17.57396,2.80305 -4.85823,2.67143 -5.68495,10.92531 -11.01069,12.46654 -5.20843,1.50728 -10.20869,-4.14457 -15.61514,-4.5568 -6.07896,-0.46351 -14.25233,-2.30096 -18.13135,2.40242 -3.53317,4.28403 -0.5271,11.28909 0.99537,16.62934 1.75251,6.14714 6.4156,11.07688 9.12057,16.8684 3.54268,7.5851 6.84255,14.75173 9.27431,23.33978 1.53545,5.42263 1.22533,10.17778 1.34597,15.29409 0.16162,6.85378 -0.80717,13.69446 -0.83536,20.55008 -0.0257,6.24334 0.60683,18.72034 0.60683,18.72034 z"
         sodipodi:nodetypes="caaasasaaaaaaaaaaaaasaac" />
      <path
         style="fill:none;stroke:#000000;stroke-width:4;stroke-linecap:round;stroke-linejoin:miter;stroke-miterlimit:4;stroke-dasharray:none;stroke-opacity:1"
         d="m 194.76443,213.5392 c 10.06162,1.22211 20.22578,1.59888 30.35026,1.12503 8.62405,-0.40363 17.24174,-1.42821 25.61505,-3.53174 7.87336,-1.97794 15.50717,-4.90762 22.68228,-8.70497"
         id="path77652"
         inkscape:path-effect="#path-effect77654"
         inkscape:original-d="m 194.76443,213.5392 c 12.96151,2.21434 20.2392,1.63081 30.35026,1.12503 8.60836,-0.43062 17.26757,-1.3849 25.61505,-3.53174 7.8432,-2.01715 12.42819,-5.32271 22.68228,-8.70497"
         sodipodi:nodetypes="caac" />
      <path
         style="fill:none;stroke:#000000;stroke-width:4;stroke-linecap:round;stroke-linejoin:miter;stroke-miterlimit:4;stroke-dasharray:none;stroke-opacity:1"
         d="m 187.05653,141.58082 c 2.18644,-4.67873 6.53204,-8.29365 11.53061,-9.59184 3.76208,-0.97706 7.73148,-0.68485 11.58475,-0.17471 3.85326,0.51014 7.70845,1.2331 11.59294,1.09655 2.45407,-0.0863 4.89573,-0.51817 7.23048,-1.27898 6.26977,-4.80362 14.13942,-7.48078 22.03781,-7.497 6.65302,-0.0137 13.29996,1.84328 18.9826,5.30312"
         id="path78314"
         inkscape:path-effect="#path-effect78316"
         inkscape:original-d="m 187.05653,141.58082 c 2.99849,-6.94666 6.82164,-7.91227 11.53061,-9.59184 7.37574,-2.63074 15.93406,0.30801 23.17769,0.92184 1.84951,0.15672 5.81943,-1.1181 7.23048,-1.27898 5.99461,-3.58239 14.28143,-7.28176 22.03781,-7.497 6.56729,-0.18224 12.714,1.12405 18.9826,5.30312"
         sodipodi:nodetypes="csscac" />
      <path
         style="fill:none;stroke:#000000;stroke-width:4;stroke-linecap:round;stroke-linejoin:miter;stroke-miterlimit:4;stroke-dasharray:none;stroke-opacity:1"
         d="m 258.28102,209.74408 c 1.07924,6.30657 2.03188,12.6348 2.85714,18.9796 1.0059,7.73358 1.82255,15.49178 2.44898,23.2653"
         id="path80103"
         inkscape:path-effect="#path-effect80105"
         inkscape:original-d="m 258.28102,209.74408 c 1.42056,6.06429 2.04587,12.63343 2.85714,18.9796 0.98881,7.735 2.35898,18.70598 2.44898,23.2653"
         sodipodi:nodetypes="cac" />
      <path
         style="fill:none;stroke:#000000;stroke-width:4;stroke-linecap:round;stroke-linejoin:miter;stroke-miterlimit:4;stroke-dasharray:none;stroke-opacity:1"
         d="m 241.85245,213.41755 c 0.80927,6.54721 1.4558,13.11454 1.93878,19.69387 0.56093,7.64112 0.90125,15.29843 1.0204,22.95919"
         id="path80111"
         inkscape:path-effect="#path-effect80113"
         inkscape:original-d="m 241.85245,213.41755 c -0.33654,8.72841 1.46904,13.11426 1.93878,19.69387 0.54553,7.64117 -2.92418,6.25436 1.0204,22.95919"
         sodipodi:nodetypes="cac" />
      <path
         style="fill:none;stroke:#000000;stroke-width:4;stroke-linecap:round;stroke-linejoin:miter;stroke-miterlimit:4;stroke-dasharray:none;stroke-opacity:1"
         d="m 224.30143,215.15224 c 0.53077,7.54218 0.90503,15.09537 1.12244,22.65307 0.19759,6.86865 0.26564,13.74102 0.20409,20.61224"
         id="path80115"
         inkscape:path-effect="#path-effect80117"
         inkscape:original-d="m 224.30143,215.15224 c 0.56092,7.04229 0.8979,15.09612 1.12244,22.65307 0.20408,6.86805 2.7058,14.48374 0.20409,20.61224"
         sodipodi:nodetypes="cac" />
      <path
         style="fill:none;stroke:#000000;stroke-width:4;stroke-linecap:round;stroke-linejoin:miter;stroke-miterlimit:4;stroke-dasharray:none;stroke-opacity:1"
         d="m 209.09735,215.35632 c -0.085,7.61985 -0.22108,15.23913 -0.40817,22.85715 -0.16459,6.70181 -0.36868,13.40264 -0.61224,20.10204"
         id="path80119"
         inkscape:path-effect="#path-effect80121"
         inkscape:original-d="m 209.09735,215.35632 c -0.33405,11.28059 -0.22415,15.23911 -0.40817,22.85715 -0.16189,6.70183 -0.61224,17.85724 -0.61224,20.10204"
         sodipodi:nodetypes="cac" />
    </g>
  </g>
  <metadata
     id="metadata929">
    <rdf:RDF>
      <cc:Work
         rdf:about="">
        <dc:title>scent-from-above</dc:title>
      </cc:Work>
    </rdf:RDF>
  </metadata>
</svg>
